<?xml version="1.0" encoding="UTF-8" standalone="no"?>
<svg
   xmlns:dc="http://purl.org/dc/elements/1.1/"
   xmlns:cc="http://creativecommons.org/ns#"
   xmlns:rdf="http://www.w3.org/1999/02/22-rdf-syntax-ns#"
   xmlns:svg="http://www.w3.org/2000/svg"
   xmlns="http://www.w3.org/2000/svg"
   xmlns:xlink="http://www.w3.org/1999/xlink"
   xmlns:sodipodi="http://sodipodi.sourceforge.net/DTD/sodipodi-0.dtd"
   xmlns:inkscape="http://www.inkscape.org/namespaces/inkscape"
   id="svg5414"
   sodipodi:docname="eLuaLogo.svg"
   viewBox="0 0 245 245"
   sodipodi:version="0.32"
   version="1.0"
   inkscape:output_extension="org.inkscape.output.svg.inkscape"
   inkscape:version="0.47 r22583"
   width="100%"
   height="100%">
  <defs
     id="defs5416">
    <inkscape:perspective
       sodipodi:type="inkscape:persp3d"
       inkscape:vp_x="0 : 122.5 : 1"
       inkscape:vp_y="0 : 1000 : 0"
       inkscape:vp_z="245 : 122.5 : 1"
       inkscape:persp3d-origin="122.5 : 81.666667 : 1"
       id="perspective2928" />
    <linearGradient
       id="linearGradient4949"
       y2="-29.3"
       xlink:href="#linearGradient4941"
       gradientUnits="userSpaceOnUse"
       x2="-28.4"
       gradientTransform="matrix(0,-0.98340352,1.0000056,0,512.19594,452.46587)"
       y1="-29.3"
       x1="-43.6"
       inkscape:collect="always" />
    <linearGradient
       id="linearGradient4971"
       y2="-29.3"
       xlink:href="#linearGradient4941"
       gradientUnits="userSpaceOnUse"
       x2="-28.4"
       gradientTransform="matrix(0,-0.98340352,1.0000056,0,525.19602,452.46587)"
       y1="-29.3"
       x1="-43.6"
       inkscape:collect="always" />
    <linearGradient
       id="linearGradient4977"
       y2="-29.3"
       xlink:href="#linearGradient4941"
       gradientUnits="userSpaceOnUse"
       x2="-28.4"
       gradientTransform="matrix(0,-0.98340352,1.0000056,0,538.1961,452.46587)"
       y1="-29.3"
       x1="-43.6"
       inkscape:collect="always" />
    <linearGradient
       id="linearGradient4987"
       y2="-29.3"
       xlink:href="#linearGradient4941"
       gradientUnits="userSpaceOnUse"
       x2="-28.4"
       gradientTransform="matrix(0,-0.98340352,1.0000056,0,551.19616,452.46587)"
       y1="-29.3"
       x1="-43.6"
       inkscape:collect="always" />
    <linearGradient
       id="linearGradient4991"
       y2="-29.3"
       xlink:href="#linearGradient4941"
       gradientUnits="userSpaceOnUse"
       x2="-28.4"
       gradientTransform="matrix(0,-0.98340352,1.0000056,0,564.19624,452.46587)"
       y1="-29.3"
       x1="-43.6"
       inkscape:collect="always" />
    <linearGradient
       id="linearGradient4995"
       y2="-29.3"
       xlink:href="#linearGradient4941"
       gradientUnits="userSpaceOnUse"
       x2="-28.4"
       gradientTransform="matrix(0,-0.98340352,1.0000056,0,577.19632,452.46587)"
       y1="-29.3"
       x1="-43.6"
       inkscape:collect="always" />
    <linearGradient
       id="linearGradient5011"
       y2="-29.3"
       xlink:href="#linearGradient4941"
       gradientUnits="userSpaceOnUse"
       x2="-28.4"
       gradientTransform="matrix(0,-0.98340352,1.0000056,0,590.25674,452.46587)"
       y1="-29.3"
       x1="-43.6"
       inkscape:collect="always" />
    <linearGradient
       id="linearGradient5015"
       y2="-29.3"
       xlink:href="#linearGradient4941"
       gradientUnits="userSpaceOnUse"
       x2="-28.4"
       gradientTransform="matrix(0,-0.98340352,1.0000056,0,603.25682,452.46587)"
       y1="-29.3"
       x1="-43.6"
       inkscape:collect="always" />
    <linearGradient
       id="linearGradient5019"
       y2="-29.3"
       xlink:href="#linearGradient4941"
       gradientUnits="userSpaceOnUse"
       x2="-28.4"
       gradientTransform="matrix(0,-0.98340352,1.0000056,0,616.2569,452.46587)"
       y1="-29.3"
       x1="-43.6"
       inkscape:collect="always" />
    <linearGradient
       id="linearGradient5023"
       y2="-29.3"
       xlink:href="#linearGradient4941"
       gradientUnits="userSpaceOnUse"
       x2="-28.4"
       gradientTransform="matrix(0,-0.98340352,1.0000056,0,629.25696,452.46587)"
       y1="-29.3"
       x1="-43.6"
       inkscape:collect="always" />
    <linearGradient
       id="linearGradient5027"
       y2="-29.3"
       xlink:href="#linearGradient4941"
       gradientUnits="userSpaceOnUse"
       x2="-28.4"
       gradientTransform="matrix(0,-0.98340352,1.0000056,0,642.25704,452.46587)"
       y1="-29.3"
       x1="-43.6"
       inkscape:collect="always" />
    <linearGradient
       id="linearGradient5031"
       y2="-29.3"
       xlink:href="#linearGradient4941"
       gradientUnits="userSpaceOnUse"
       x2="-28.4"
       gradientTransform="matrix(0,-0.98340352,1.0000056,0,655.25712,452.46587)"
       y1="-29.3"
       x1="-43.6"
       inkscape:collect="always" />
    <linearGradient
       id="linearGradient5059"
       y2="-29.3"
       xlink:href="#linearGradient4941"
       gradientUnits="userSpaceOnUse"
       x2="-28.4"
       gradientTransform="matrix(0,1,-1,0,597.57786,701.73849)"
       y1="-29.3"
       x1="-43.6"
       inkscape:collect="always" />
    <linearGradient
       id="linearGradient5063"
       y2="-29.3"
       xlink:href="#linearGradient4941"
       gradientUnits="userSpaceOnUse"
       x2="-28.4"
       gradientTransform="matrix(0,1,-1,0,584.57786,701.73849)"
       y1="-29.3"
       x1="-43.6"
       inkscape:collect="always" />
    <linearGradient
       id="linearGradient5067"
       y2="-29.3"
       xlink:href="#linearGradient4941"
       gradientUnits="userSpaceOnUse"
       x2="-28.4"
       gradientTransform="matrix(0,1,-1,0,571.57786,701.73849)"
       y1="-29.3"
       x1="-43.6"
       inkscape:collect="always" />
    <linearGradient
       id="linearGradient5071"
       y2="-29.3"
       xlink:href="#linearGradient4941"
       gradientUnits="userSpaceOnUse"
       x2="-28.4"
       gradientTransform="matrix(0,1,-1,0,558.57786,701.73849)"
       y1="-29.3"
       x1="-43.6"
       inkscape:collect="always" />
    <linearGradient
       id="linearGradient5075"
       y2="-29.3"
       xlink:href="#linearGradient4941"
       gradientUnits="userSpaceOnUse"
       x2="-28.4"
       gradientTransform="matrix(0,1,-1,0,545.57786,701.73849)"
       y1="-29.3"
       x1="-43.6"
       inkscape:collect="always" />
    <linearGradient
       id="linearGradient5079"
       y2="-29.3"
       xlink:href="#linearGradient4941"
       gradientUnits="userSpaceOnUse"
       x2="-28.4"
       gradientTransform="matrix(0,1,-1,0,532.57786,701.73849)"
       y1="-29.3"
       x1="-43.6"
       inkscape:collect="always" />
    <linearGradient
       id="linearGradient5083"
       y2="-29.3"
       xlink:href="#linearGradient4941"
       gradientUnits="userSpaceOnUse"
       x2="-28.4"
       gradientTransform="matrix(0,1,-1,0,519.5175,701.73849)"
       y1="-29.3"
       x1="-43.6"
       inkscape:collect="always" />
    <linearGradient
       id="linearGradient5087"
       y2="-29.3"
       xlink:href="#linearGradient4941"
       gradientUnits="userSpaceOnUse"
       x2="-28.4"
       gradientTransform="matrix(0,1,-1,0,506.5175,701.73849)"
       y1="-29.3"
       x1="-43.6"
       inkscape:collect="always" />
    <linearGradient
       id="linearGradient5091"
       y2="-29.3"
       xlink:href="#linearGradient4941"
       gradientUnits="userSpaceOnUse"
       x2="-28.4"
       gradientTransform="matrix(0,1,-1,0,493.5175,701.73849)"
       y1="-29.3"
       x1="-43.6"
       inkscape:collect="always" />
    <linearGradient
       id="linearGradient5095"
       y2="-29.3"
       xlink:href="#linearGradient4941"
       gradientUnits="userSpaceOnUse"
       x2="-28.4"
       gradientTransform="matrix(0,1,-1,0,480.5175,701.73849)"
       y1="-29.3"
       x1="-43.6"
       inkscape:collect="always" />
    <linearGradient
       id="linearGradient5099"
       y2="-29.3"
       xlink:href="#linearGradient4941"
       gradientUnits="userSpaceOnUse"
       x2="-28.4"
       gradientTransform="matrix(0,1,-1,0,467.5175,701.73849)"
       y1="-29.3"
       x1="-43.6"
       inkscape:collect="always" />
    <linearGradient
       id="linearGradient5103"
       y2="-29.3"
       xlink:href="#linearGradient4941"
       gradientUnits="userSpaceOnUse"
       x2="-28.4"
       gradientTransform="matrix(0,1,-1,0,454.5175,701.73849)"
       y1="-29.3"
       x1="-43.6"
       inkscape:collect="always" />
    <linearGradient
       id="linearGradient5131"
       y2="-29.3"
       xlink:href="#linearGradient4941"
       gradientUnits="userSpaceOnUse"
       x2="-28.4"
       gradientTransform="translate(679.19618,535.35681)"
       y1="-29.3"
       x1="-43.6"
       inkscape:collect="always" />
    <linearGradient
       id="linearGradient5135"
       y2="-29.3"
       xlink:href="#linearGradient4941"
       gradientUnits="userSpaceOnUse"
       x2="-28.4"
       gradientTransform="translate(679.19618,548.35681)"
       y1="-29.3"
       x1="-43.6"
       inkscape:collect="always" />
    <linearGradient
       id="linearGradient5139"
       y2="-29.3"
       xlink:href="#linearGradient4941"
       gradientUnits="userSpaceOnUse"
       x2="-28.4"
       gradientTransform="translate(679.19618,561.35681)"
       y1="-29.3"
       x1="-43.6"
       inkscape:collect="always" />
    <linearGradient
       id="linearGradient5143"
       y2="-29.3"
       xlink:href="#linearGradient4941"
       gradientUnits="userSpaceOnUse"
       x2="-28.4"
       gradientTransform="translate(679.19618,574.35681)"
       y1="-29.3"
       x1="-43.6"
       inkscape:collect="always" />
    <linearGradient
       id="linearGradient5147"
       y2="-29.3"
       xlink:href="#linearGradient4941"
       gradientUnits="userSpaceOnUse"
       x2="-28.4"
       gradientTransform="translate(679.19618,587.35681)"
       y1="-29.3"
       x1="-43.6"
       inkscape:collect="always" />
    <linearGradient
       id="linearGradient5151"
       y2="-29.3"
       xlink:href="#linearGradient4941"
       gradientUnits="userSpaceOnUse"
       x2="-28.4"
       gradientTransform="translate(679.19618,600.35681)"
       y1="-29.3"
       x1="-43.6"
       inkscape:collect="always" />
    <linearGradient
       id="linearGradient5155"
       y2="-29.3"
       xlink:href="#linearGradient4941"
       gradientUnits="userSpaceOnUse"
       x2="-28.4"
       gradientTransform="translate(679.19618,613.41717)"
       y1="-29.3"
       x1="-43.6"
       inkscape:collect="always" />
    <linearGradient
       id="linearGradient5159"
       y2="-29.3"
       xlink:href="#linearGradient4941"
       gradientUnits="userSpaceOnUse"
       x2="-28.4"
       gradientTransform="translate(679.19618,626.41717)"
       y1="-29.3"
       x1="-43.6"
       inkscape:collect="always" />
    <linearGradient
       id="linearGradient5163"
       y2="-29.3"
       xlink:href="#linearGradient4941"
       gradientUnits="userSpaceOnUse"
       x2="-28.4"
       gradientTransform="translate(679.19618,639.41717)"
       y1="-29.3"
       x1="-43.6"
       inkscape:collect="always" />
    <linearGradient
       id="linearGradient5167"
       y2="-29.3"
       xlink:href="#linearGradient4941"
       gradientUnits="userSpaceOnUse"
       x2="-28.4"
       gradientTransform="translate(679.19618,652.41717)"
       y1="-29.3"
       x1="-43.6"
       inkscape:collect="always" />
    <linearGradient
       id="linearGradient5171"
       y2="-29.3"
       xlink:href="#linearGradient4941"
       gradientUnits="userSpaceOnUse"
       x2="-28.4"
       gradientTransform="translate(679.19618,665.41717)"
       y1="-29.3"
       x1="-43.6"
       inkscape:collect="always" />
    <linearGradient
       id="linearGradient5175"
       y2="-29.3"
       xlink:href="#linearGradient4941"
       gradientUnits="userSpaceOnUse"
       x2="-28.4"
       gradientTransform="translate(679.19618,678.41717)"
       y1="-29.3"
       x1="-43.6"
       inkscape:collect="always" />
    <linearGradient
       id="linearGradient5247"
       y2="-29.3"
       xlink:href="#linearGradient4941"
       gradientUnits="userSpaceOnUse"
       x2="-28.4"
       gradientTransform="matrix(-1,0,0,-1,429.19618,475.67813)"
       y1="-29.3"
       x1="-43.6"
       inkscape:collect="always" />
    <linearGradient
       id="linearGradient5243"
       y2="-29.3"
       xlink:href="#linearGradient4941"
       gradientUnits="userSpaceOnUse"
       x2="-28.4"
       gradientTransform="matrix(-1,0,0,-1,429.19618,488.67813)"
       y1="-29.3"
       x1="-43.6"
       inkscape:collect="always" />
    <linearGradient
       id="linearGradient5239"
       y2="-29.3"
       xlink:href="#linearGradient4941"
       gradientUnits="userSpaceOnUse"
       x2="-28.4"
       gradientTransform="matrix(-1,0,0,-1,429.19618,501.67813)"
       y1="-29.3"
       x1="-43.6"
       inkscape:collect="always" />
    <linearGradient
       id="linearGradient5235"
       y2="-29.3"
       xlink:href="#linearGradient4941"
       gradientUnits="userSpaceOnUse"
       x2="-28.4"
       gradientTransform="matrix(-1,0,0,-1,429.19618,514.67813)"
       y1="-29.3"
       x1="-43.6"
       inkscape:collect="always" />
    <linearGradient
       id="linearGradient5231"
       y2="-29.3"
       xlink:href="#linearGradient4941"
       gradientUnits="userSpaceOnUse"
       x2="-28.4"
       gradientTransform="matrix(-1,0,0,-1,429.19618,527.67813)"
       y1="-29.3"
       x1="-43.6"
       inkscape:collect="always" />
    <linearGradient
       id="linearGradient5227"
       y2="-29.3"
       xlink:href="#linearGradient4941"
       gradientUnits="userSpaceOnUse"
       x2="-28.4"
       gradientTransform="matrix(-1,0,0,-1,429.19618,540.67813)"
       y1="-29.3"
       x1="-43.6"
       inkscape:collect="always" />
    <linearGradient
       id="linearGradient5223"
       y2="-29.3"
       xlink:href="#linearGradient4941"
       gradientUnits="userSpaceOnUse"
       x2="-28.4"
       gradientTransform="matrix(-1,0,0,-1,429.19618,553.73849)"
       y1="-29.3"
       x1="-43.6"
       inkscape:collect="always" />
    <linearGradient
       id="linearGradient5219"
       y2="-29.3"
       xlink:href="#linearGradient4941"
       gradientUnits="userSpaceOnUse"
       x2="-28.4"
       gradientTransform="matrix(-1,0,0,-1,429.19618,566.73849)"
       y1="-29.3"
       x1="-43.6"
       inkscape:collect="always" />
    <linearGradient
       id="linearGradient5215"
       y2="-29.3"
       xlink:href="#linearGradient4941"
       gradientUnits="userSpaceOnUse"
       x2="-28.4"
       gradientTransform="matrix(-1,0,0,-1,429.19618,579.73849)"
       y1="-29.3"
       x1="-43.6"
       inkscape:collect="always" />
    <linearGradient
       id="linearGradient5211"
       y2="-29.3"
       xlink:href="#linearGradient4941"
       gradientUnits="userSpaceOnUse"
       x2="-28.4"
       gradientTransform="matrix(-1,0,0,-1,429.19618,592.73849)"
       y1="-29.3"
       x1="-43.6"
       inkscape:collect="always" />
    <linearGradient
       id="linearGradient5207"
       y2="-29.3"
       xlink:href="#linearGradient4941"
       gradientUnits="userSpaceOnUse"
       x2="-28.4"
       gradientTransform="matrix(-1,0,0,-1,429.19618,605.73849)"
       y1="-29.3"
       x1="-43.6"
       inkscape:collect="always" />
    <linearGradient
       id="linearGradient5203"
       y2="-29.3"
       xlink:href="#linearGradient4941"
       gradientUnits="userSpaceOnUse"
       x2="-28.4"
       gradientTransform="matrix(-1,0,0,-1,429.19618,618.73849)"
       y1="-29.3"
       x1="-43.6"
       inkscape:collect="always" />
    <linearGradient
       id="linearGradient4941">
      <stop
         id="stop4943"
         stop-color="#7f7f7f"
         offset="0" />
      <stop
         id="stop4951"
         stop-color="#7f7f7f"
         offset="0.771" />
      <stop
         id="stop4945"
         stop-color="#7f7f7f"
         stop-opacity="0"
         offset="1" />
    </linearGradient>
  </defs>
  <sodipodi:namedview
     id="base"
     inkscape:zoom="4"
     borderopacity="1.0"
     inkscape:current-layer="layer1"
     inkscape:cx="82.806203"
     inkscape:cy="145.38337"
     inkscape:window-maximized="0"
     showgrid="true"
     inkscape:guide-bbox="true"
     showguides="true"
     bordercolor="#666666"
     inkscape:window-x="0"
     guidetolerance="10"
     objecttolerance="10"
     inkscape:window-y="0"
     inkscape:window-width="1280"
     inkscape:pageopacity="0.0"
     inkscape:pageshadow="2"
     pagecolor="#ffffff"
     gridtolerance="10000"
     inkscape:document-units="px"
     inkscape:window-height="752">
    <inkscape:grid
       type="xygrid"
       id="grid2929" />
  </sodipodi:namedview>
  <metadata
     id="metadata5419">
    <rdf:RDF>
      <cc:Work
         rdf:about="">
        <dc:format>image/svg+xml</dc:format>
        <dc:type
           rdf:resource="http://purl.org/dc/dcmitype/StillImage" />
      </cc:Work>
    </rdf:RDF>
  </metadata>
  <g
     id="layer1"
     inkscape:label="Layer 1"
     inkscape:groupmode="layer"
     transform="translate(-431.29956,-455.34533)">
    <path
       id="path4931"
       style="fill:url(#linearGradient4949);fill-rule:evenodd;stroke:url(#linearGradient4949);stroke-width:0.09958258;stroke-linecap:butt;stroke-linejoin:miter;stroke-miterlimit:4;stroke-dasharray:none"
       d="m 479.36185,495.28283 6.44002,0 0,-9.91667 c 0,-3.70883 -0.0656,-4.95833 -3.22001,-4.95833 -3.16001,0 -3.22001,1.18008 -3.22001,4.95833 l 0,9.91667 z"
       sodipodi:nodetypes="ccsssc"
       stroke-miterlimit="4" />
    <path
       id="path4957"
       style="fill:url(#linearGradient4971);fill-rule:evenodd;stroke:url(#linearGradient4971);stroke-width:0.09958258;stroke-linecap:butt;stroke-linejoin:miter;stroke-miterlimit:4;stroke-dasharray:none"
       d="m 492.36189,495.28283 6.44002,0 0,-9.91667 c 0,-3.70883 -0.0656,-4.95833 -3.22001,-4.95833 -3.16001,0 -3.22001,1.18008 -3.22001,4.95833 l 0,9.91667 z"
       sodipodi:nodetypes="ccsssc"
       stroke-miterlimit="4" />
    <path
       id="path4973"
       style="fill:url(#linearGradient4977);fill-rule:evenodd;stroke:url(#linearGradient4977);stroke-width:0.09958258;stroke-linecap:butt;stroke-linejoin:miter;stroke-miterlimit:4;stroke-dasharray:none"
       d="m 505.36192,495.28283 6.44002,0 0,-9.91667 c 0,-3.70883 -0.0656,-4.95833 -3.22001,-4.95833 -3.16001,0 -3.22001,1.18008 -3.22001,4.95833 l 0,9.91667 z"
       sodipodi:nodetypes="ccsssc"
       stroke-miterlimit="4" />
    <path
       id="path4979"
       style="fill:url(#linearGradient4987);fill-rule:evenodd;stroke:url(#linearGradient4987);stroke-width:0.09958258;stroke-linecap:butt;stroke-linejoin:miter;stroke-miterlimit:4;stroke-dasharray:none"
       d="m 518.36196,495.28283 6.44002,0 0,-9.91667 c 0,-3.70883 -0.0656,-4.95833 -3.22001,-4.95833 -3.16001,0 -3.22001,1.18008 -3.22001,4.95833 l 0,9.91667 z"
       sodipodi:nodetypes="ccsssc"
       stroke-miterlimit="4" />
    <path
       id="path4981"
       style="fill:url(#linearGradient4991);fill-rule:evenodd;stroke:url(#linearGradient4991);stroke-width:0.09958258;stroke-linecap:butt;stroke-linejoin:miter;stroke-miterlimit:4;stroke-dasharray:none"
       d="m 531.362,495.28283 6.44001,0 0,-9.91667 c 0,-3.70883 -0.0656,-4.95833 -3.22,-4.95833 -3.16001,0 -3.22001,1.18008 -3.22001,4.95833 l 0,9.91667 z"
       sodipodi:nodetypes="ccsssc"
       stroke-miterlimit="4" />
    <path
       id="path4983"
       style="fill:url(#linearGradient4995);fill-rule:evenodd;stroke:url(#linearGradient4995);stroke-width:0.09958258;stroke-linecap:butt;stroke-linejoin:miter;stroke-miterlimit:4;stroke-dasharray:none"
       d="m 544.36203,495.28283 6.44002,0 0,-9.91667 c 0,-3.70883 -0.0656,-4.95833 -3.22001,-4.95833 -3.16001,0 -3.22001,1.18008 -3.22001,4.95833 l 0,9.91667 z"
       sodipodi:nodetypes="ccsssc"
       stroke-miterlimit="4" />
    <path
       id="path4997"
       style="fill:url(#linearGradient5011);fill-rule:evenodd;stroke:url(#linearGradient5011);stroke-width:0.09958258;stroke-linecap:butt;stroke-linejoin:miter;stroke-miterlimit:4;stroke-dasharray:none"
       d="m 557.36207,495.28283 6.44002,0 0,-9.91667 c 0,-3.70883 -0.0656,-4.95833 -3.22001,-4.95833 -3.16001,0 -3.22001,1.18008 -3.22001,4.95833 l 0,9.91667 z"
       sodipodi:nodetypes="ccsssc"
       stroke-miterlimit="4" />
    <path
       id="path4999"
       style="fill:url(#linearGradient5015);fill-rule:evenodd;stroke:url(#linearGradient5015);stroke-width:0.09958258;stroke-linecap:butt;stroke-linejoin:miter;stroke-miterlimit:4;stroke-dasharray:none"
       d="m 570.36211,495.28283 6.44001,0 0,-9.91667 c 0,-3.70883 -0.0656,-4.95833 -3.22001,-4.95833 -3.16,0 -3.22,1.18008 -3.22,4.95833 l 0,9.91667 z"
       sodipodi:nodetypes="ccsssc"
       stroke-miterlimit="4" />
    <path
       id="path5001"
       style="fill:url(#linearGradient5019);fill-rule:evenodd;stroke:url(#linearGradient5019);stroke-width:0.09958258;stroke-linecap:butt;stroke-linejoin:miter;stroke-miterlimit:4;stroke-dasharray:none"
       d="m 583.36214,495.28283 6.44002,0 0,-9.91667 c 0,-3.70883 -0.0656,-4.95833 -3.22001,-4.95833 -3.16001,0 -3.22001,1.18008 -3.22001,4.95833 l 0,9.91667 z"
       sodipodi:nodetypes="ccsssc"
       stroke-miterlimit="4" />
    <path
       id="path5003"
       style="fill:url(#linearGradient5023);fill-rule:evenodd;stroke:url(#linearGradient5023);stroke-width:0.09958258;stroke-linecap:butt;stroke-linejoin:miter;stroke-miterlimit:4;stroke-dasharray:none"
       d="m 596.36218,495.28283 6.44002,0 0,-9.91667 c 0,-3.70883 -0.0656,-4.95833 -3.22001,-4.95833 -3.16001,0 -3.22001,1.18008 -3.22001,4.95833 l 0,9.91667 z"
       sodipodi:nodetypes="ccsssc"
       stroke-miterlimit="4" />
    <path
       id="path5005"
       style="fill:url(#linearGradient5027);fill-rule:evenodd;stroke:url(#linearGradient5027);stroke-width:0.09958258;stroke-linecap:butt;stroke-linejoin:miter;stroke-miterlimit:4;stroke-dasharray:none"
       d="m 609.36221,495.28283 6.44002,0 0,-9.91667 c 0,-3.70883 -0.0656,-4.95833 -3.22001,-4.95833 -3.16001,0 -3.22001,1.18008 -3.22001,4.95833 l 0,9.91667 z"
       sodipodi:nodetypes="ccsssc"
       stroke-miterlimit="4" />
    <path
       id="path5007"
       style="fill:url(#linearGradient5031);fill-rule:evenodd;stroke:url(#linearGradient5031);stroke-width:0.09958258;stroke-linecap:butt;stroke-linejoin:miter;stroke-miterlimit:4;stroke-dasharray:none"
       d="m 622.36225,495.28283 6.44002,0 0,-9.91667 c 0,-3.70883 -0.0656,-4.95833 -3.22001,-4.95833 -3.16001,0 -3.22001,1.18008 -3.22001,4.95833 l 0,9.91667 z"
       sodipodi:nodetypes="ccsssc"
       stroke-miterlimit="4" />
    <path
       id="path5033"
       style="fill:url(#linearGradient5059);fill-rule:evenodd;stroke:url(#linearGradient5059);stroke-width:0.09999997;stroke-linecap:butt;stroke-linejoin:miter;stroke-miterlimit:4;stroke-dasharray:none"
       d="m 628.80206,659.28283 -6.44,0 v 10 c 0,3.74 0.0656,5 3.22,5 3.16,0 3.22,-1.19 3.22,-5 v -10 z"
       sodipodi:nodetypes="ccsssc"
       stroke-miterlimit="4" />
    <path
       id="path5035"
       style="fill:url(#linearGradient5063);fill-rule:evenodd;stroke:url(#linearGradient5063);stroke-width:0.09999997;stroke-linecap:butt;stroke-linejoin:miter;stroke-miterlimit:4;stroke-dasharray:none"
       d="m 615.80206,659.28283 -6.44,0 v 10 c 0,3.74 0.0656,5 3.22,5 3.16,0 3.22,-1.19 3.22,-5 v -10 z"
       sodipodi:nodetypes="ccsssc"
       stroke-miterlimit="4" />
    <path
       id="path5037"
       style="fill:url(#linearGradient5067);fill-rule:evenodd;stroke:url(#linearGradient5067);stroke-width:0.09999997;stroke-linecap:butt;stroke-linejoin:miter;stroke-miterlimit:4;stroke-dasharray:none"
       d="m 602.80206,659.28283 -6.44,0 v 10 c 0,3.74 0.0656,5 3.22,5 3.16,0 3.22,-1.19 3.22,-5 v -10 z"
       sodipodi:nodetypes="ccsssc"
       stroke-miterlimit="4" />
    <path
       id="path5039"
       style="fill:url(#linearGradient5071);fill-rule:evenodd;stroke:url(#linearGradient5071);stroke-width:0.09999997;stroke-linecap:butt;stroke-linejoin:miter;stroke-miterlimit:4;stroke-dasharray:none"
       d="m 589.80206,659.28283 -6.44,0 v 10 c 0,3.74 0.0656,5 3.22,5 3.16,0 3.22,-1.19 3.22,-5 v -10 z"
       sodipodi:nodetypes="ccsssc"
       stroke-miterlimit="4" />
    <path
       id="path5041"
       style="fill:url(#linearGradient5075);fill-rule:evenodd;stroke:url(#linearGradient5075);stroke-width:0.09999997;stroke-linecap:butt;stroke-linejoin:miter;stroke-miterlimit:4;stroke-dasharray:none"
       d="m 576.80206,659.28283 -6.44,0 v 10 c 0,3.74 0.0656,5 3.22,5 3.16,0 3.22,-1.19 3.22,-5 v -10 z"
       sodipodi:nodetypes="ccsssc"
       stroke-miterlimit="4" />
    <path
       id="path5043"
       style="fill:url(#linearGradient5079);fill-rule:evenodd;stroke:url(#linearGradient5079);stroke-width:0.09999997;stroke-linecap:butt;stroke-linejoin:miter;stroke-miterlimit:4;stroke-dasharray:none"
       d="m 563.80206,659.28283 -6.44,0 v 10 c 0,3.74 0.0656,5 3.22,5 3.16,0 3.22,-1.19 3.22,-5 v -10 z"
       sodipodi:nodetypes="ccsssc"
       stroke-miterlimit="4" />
    <path
       id="path5045"
       style="fill:url(#linearGradient5083);fill-rule:evenodd;stroke:url(#linearGradient5083);stroke-width:0.09999997;stroke-linecap:butt;stroke-linejoin:miter;stroke-miterlimit:4;stroke-dasharray:none"
       d="m 550.80206,659.28283 -6.44,0 v 10 c 0,3.74 0.0656,5 3.22,5 3.16,0 3.22,-1.19 3.22,-5 v -10 z"
       sodipodi:nodetypes="ccsssc"
       stroke-miterlimit="4" />
    <path
       id="path5047"
       style="fill:url(#linearGradient5087);fill-rule:evenodd;stroke:url(#linearGradient5087);stroke-width:0.09999997;stroke-linecap:butt;stroke-linejoin:miter;stroke-miterlimit:4;stroke-dasharray:none"
       d="m 537.80206,659.28283 -6.44,0 v 10 c 0,3.74 0.0656,5 3.22,5 3.16,0 3.22,-1.19 3.22,-5 v -10 z"
       sodipodi:nodetypes="ccsssc"
       stroke-miterlimit="4" />
    <path
       id="path5049"
       style="fill:url(#linearGradient5091);fill-rule:evenodd;stroke:url(#linearGradient5091);stroke-width:0.09999997;stroke-linecap:butt;stroke-linejoin:miter;stroke-miterlimit:4;stroke-dasharray:none"
       d="m 524.80206,659.28283 -6.44,0 v 10 c 0,3.74 0.0656,5 3.22,5 3.16,0 3.22,-1.19 3.22,-5 v -10 z"
       sodipodi:nodetypes="ccsssc"
       stroke-miterlimit="4" />
    <path
       id="path5051"
       style="fill:url(#linearGradient5095);fill-rule:evenodd;stroke:url(#linearGradient5095);stroke-width:0.09999997;stroke-linecap:butt;stroke-linejoin:miter;stroke-miterlimit:4;stroke-dasharray:none"
       d="m 511.80206,659.28283 -6.44,0 v 10 c 0,3.74 0.0656,5 3.22,5 3.16,0 3.22,-1.19 3.22,-5 v -10 z"
       sodipodi:nodetypes="ccsssc"
       stroke-miterlimit="4" />
    <path
       id="path5053"
       style="fill:url(#linearGradient5099);fill-rule:evenodd;stroke:url(#linearGradient5099);stroke-width:0.09999997;stroke-linecap:butt;stroke-linejoin:miter;stroke-miterlimit:4;stroke-dasharray:none"
       d="m 498.80206,659.28283 -6.44,0 v 10 c 0,3.74 0.0656,5 3.22,5 3.16,0 3.22,-1.19 3.22,-5 v -10 z"
       sodipodi:nodetypes="ccsssc"
       stroke-miterlimit="4" />
    <path
       id="path5055"
       style="fill:url(#linearGradient5103);fill-rule:evenodd;stroke:url(#linearGradient5103);stroke-width:0.09999997;stroke-linecap:butt;stroke-linejoin:miter;stroke-miterlimit:4;stroke-dasharray:none"
       d="m 485.80206,659.28283 -6.44,0 v 10 c 0,3.74 0.0656,5 3.22,5 3.16,0 3.22,-1.19 3.22,-5 v -10 z"
       sodipodi:nodetypes="ccsssc"
       stroke-miterlimit="4" />
    <path
       id="path5105"
       style="fill:url(#linearGradient5131);fill-rule:evenodd;stroke:url(#linearGradient5131);stroke-width:0.09999997;stroke-linecap:butt;stroke-linejoin:miter;stroke-miterlimit:4;stroke-dasharray:none"
       d="m 636.36206,502.84283 0,6.44 h 10 c 3.74,0 5,-0.0656 5,-3.22 0,-3.16 -1.19,-3.22 -5,-3.22 h -10 z"
       sodipodi:nodetypes="ccsssc"
       stroke-miterlimit="4" />
    <path
       id="path5107"
       style="fill:url(#linearGradient5135);fill-rule:evenodd;stroke:url(#linearGradient5135);stroke-width:0.09999997;stroke-linecap:butt;stroke-linejoin:miter;stroke-miterlimit:4;stroke-dasharray:none"
       d="m 636.36206,515.84283 0,6.44 h 10 c 3.74,0 5,-0.0656 5,-3.22 0,-3.16 -1.19,-3.22 -5,-3.22 h -10 z"
       sodipodi:nodetypes="ccsssc"
       stroke-miterlimit="4" />
    <path
       id="path5109"
       style="fill:url(#linearGradient5139);fill-rule:evenodd;stroke:url(#linearGradient5139);stroke-width:0.09999997;stroke-linecap:butt;stroke-linejoin:miter;stroke-miterlimit:4;stroke-dasharray:none"
       d="m 636.36206,528.84283 0,6.44 h 10 c 3.74,0 5,-0.0656 5,-3.22 0,-3.16 -1.19,-3.22 -5,-3.22 h -10 z"
       sodipodi:nodetypes="ccsssc"
       stroke-miterlimit="4" />
    <path
       id="path5111"
       style="fill:url(#linearGradient5143);fill-rule:evenodd;stroke:url(#linearGradient5143);stroke-width:0.09999997;stroke-linecap:butt;stroke-linejoin:miter;stroke-miterlimit:4;stroke-dasharray:none"
       d="m 636.36206,541.84283 0,6.44 h 10 c 3.74,0 5,-0.0656 5,-3.22 0,-3.16 -1.19,-3.22 -5,-3.22 h -10 z"
       sodipodi:nodetypes="ccsssc"
       stroke-miterlimit="4" />
    <path
       id="path5113"
       style="fill:url(#linearGradient5147);fill-rule:evenodd;stroke:url(#linearGradient5147);stroke-width:0.09999997;stroke-linecap:butt;stroke-linejoin:miter;stroke-miterlimit:4;stroke-dasharray:none"
       d="m 636.36206,554.84283 0,6.44 h 10 c 3.74,0 5,-0.0656 5,-3.22 0,-3.16 -1.19,-3.22 -5,-3.22 h -10 z"
       sodipodi:nodetypes="ccsssc"
       stroke-miterlimit="4" />
    <path
       id="path5115"
       style="fill:url(#linearGradient5151);fill-rule:evenodd;stroke:url(#linearGradient5151);stroke-width:0.09999997;stroke-linecap:butt;stroke-linejoin:miter;stroke-miterlimit:4;stroke-dasharray:none"
       d="m 636.36206,567.84283 0,6.44 h 10 c 3.74,0 5,-0.0656 5,-3.22 0,-3.16 -1.19,-3.22 -5,-3.22 h -10 z"
       sodipodi:nodetypes="ccsssc"
       stroke-miterlimit="4" />
    <path
       id="path5117"
       style="fill:url(#linearGradient5155);fill-rule:evenodd;stroke:url(#linearGradient5155);stroke-width:0.09999997;stroke-linecap:butt;stroke-linejoin:miter;stroke-miterlimit:4;stroke-dasharray:none"
       d="m 636.36206,580.84283 0,6.44 h 10 c 3.74,0 5,-0.0656 5,-3.22 0,-3.16 -1.19,-3.22 -5,-3.22 h -10 z"
       sodipodi:nodetypes="ccsssc"
       stroke-miterlimit="4" />
    <path
       id="path5119"
       style="fill:url(#linearGradient5159);fill-rule:evenodd;stroke:url(#linearGradient5159);stroke-width:0.09999997;stroke-linecap:butt;stroke-linejoin:miter;stroke-miterlimit:4;stroke-dasharray:none"
       d="m 636.36206,593.84283 0,6.44 h 10 c 3.74,0 5,-0.0656 5,-3.22 0,-3.16 -1.19,-3.22 -5,-3.22 h -10 z"
       sodipodi:nodetypes="ccsssc"
       stroke-miterlimit="4" />
    <path
       id="path5121"
       style="fill:url(#linearGradient5163);fill-rule:evenodd;stroke:url(#linearGradient5163);stroke-width:0.09999997;stroke-linecap:butt;stroke-linejoin:miter;stroke-miterlimit:4;stroke-dasharray:none"
       d="m 636.36206,606.84283 0,6.44 h 10 c 3.74,0 5,-0.0656 5,-3.22 0,-3.16 -1.19,-3.22 -5,-3.22 h -10 z"
       sodipodi:nodetypes="ccsssc"
       stroke-miterlimit="4" />
    <path
       id="path5123"
       style="fill:url(#linearGradient5167);fill-rule:evenodd;stroke:url(#linearGradient5167);stroke-width:0.09999997;stroke-linecap:butt;stroke-linejoin:miter;stroke-miterlimit:4;stroke-dasharray:none"
       d="m 636.36206,619.84283 0,6.44 h 10 c 3.74,0 5,-0.0656 5,-3.22 0,-3.16 -1.19,-3.22 -5,-3.22 h -10 z"
       sodipodi:nodetypes="ccsssc"
       stroke-miterlimit="4" />
    <path
       id="path5125"
       style="fill:url(#linearGradient5171);fill-rule:evenodd;stroke:url(#linearGradient5171);stroke-width:0.09999997;stroke-linecap:butt;stroke-linejoin:miter;stroke-miterlimit:4;stroke-dasharray:none"
       d="m 636.36206,632.84283 0,6.44 h 10 c 3.74,0 5,-0.0656 5,-3.22 0,-3.16 -1.19,-3.22 -5,-3.22 h -10 z"
       sodipodi:nodetypes="ccsssc"
       stroke-miterlimit="4" />
    <path
       id="path5127"
       style="fill:url(#linearGradient5175);fill-rule:evenodd;stroke:url(#linearGradient5175);stroke-width:0.09999997;stroke-linecap:butt;stroke-linejoin:miter;stroke-miterlimit:4;stroke-dasharray:none"
       d="m 636.36206,645.84283 0,6.44 h 10 c 3.74,0 5,-0.0656 5,-3.22 0,-3.16 -1.19,-3.22 -5,-3.22 h -10 z"
       sodipodi:nodetypes="ccsssc"
       stroke-miterlimit="4" />
    <path
       id="path5199"
       style="fill:url(#linearGradient5247);fill-rule:evenodd;stroke:url(#linearGradient5247);stroke-width:0.09999997;stroke-linecap:butt;stroke-linejoin:miter;stroke-miterlimit:4;stroke-dasharray:none"
       d="m 472.36206,509.28283 0,-6.44 h -10 c -3.74,0 -5,0.0656 -5,3.22 0,3.16 1.19,3.22 5,3.22 h 10 z"
       sodipodi:nodetypes="ccsssc"
       stroke-miterlimit="4" />
    <path
       id="path5197"
       style="fill:url(#linearGradient5243);fill-rule:evenodd;stroke:url(#linearGradient5243);stroke-width:0.09999997;stroke-linecap:butt;stroke-linejoin:miter;stroke-miterlimit:4;stroke-dasharray:none"
       d="m 472.36206,522.28283 0,-6.44 h -10 c -3.74,0 -5,0.0656 -5,3.22 0,3.16 1.19,3.22 5,3.22 h 10 z"
       sodipodi:nodetypes="ccsssc"
       stroke-miterlimit="4" />
    <path
       id="path5195"
       style="fill:url(#linearGradient5239);fill-rule:evenodd;stroke:url(#linearGradient5239);stroke-width:0.09999997;stroke-linecap:butt;stroke-linejoin:miter;stroke-miterlimit:4;stroke-dasharray:none"
       d="m 472.36206,535.28283 0,-6.44 h -10 c -3.74,0 -5,0.0656 -5,3.22 0,3.16 1.19,3.22 5,3.22 h 10 z"
       sodipodi:nodetypes="ccsssc"
       stroke-miterlimit="4" />
    <path
       id="path5193"
       style="fill:url(#linearGradient5235);fill-rule:evenodd;stroke:url(#linearGradient5235);stroke-width:0.09999997;stroke-linecap:butt;stroke-linejoin:miter;stroke-miterlimit:4;stroke-dasharray:none"
       d="m 472.36206,548.28283 0,-6.44 h -10 c -3.74,0 -5,0.0656 -5,3.22 0,3.16 1.19,3.22 5,3.22 h 10 z"
       sodipodi:nodetypes="ccsssc"
       stroke-miterlimit="4" />
    <path
       id="path5191"
       style="fill:url(#linearGradient5231);fill-rule:evenodd;stroke:url(#linearGradient5231);stroke-width:0.09999997;stroke-linecap:butt;stroke-linejoin:miter;stroke-miterlimit:4;stroke-dasharray:none"
       d="m 472.36206,561.28283 0,-6.44 h -10 c -3.74,0 -5,0.0656 -5,3.22 0,3.16 1.19,3.22 5,3.22 h 10 z"
       sodipodi:nodetypes="ccsssc"
       stroke-miterlimit="4" />
    <path
       id="path5189"
       style="fill:url(#linearGradient5227);fill-rule:evenodd;stroke:url(#linearGradient5227);stroke-width:0.09999997;stroke-linecap:butt;stroke-linejoin:miter;stroke-miterlimit:4;stroke-dasharray:none"
       d="m 472.36206,574.28283 0,-6.44 h -10 c -3.74,0 -5,0.0656 -5,3.22 0,3.16 1.19,3.22 5,3.22 h 10 z"
       sodipodi:nodetypes="ccsssc"
       stroke-miterlimit="4" />
    <path
       id="path5187"
       style="fill:url(#linearGradient5223);fill-rule:evenodd;stroke:url(#linearGradient5223);stroke-width:0.09999997;stroke-linecap:butt;stroke-linejoin:miter;stroke-miterlimit:4;stroke-dasharray:none"
       d="m 472.36206,587.28283 0,-6.44 h -10 c -3.74,0 -5,0.0656 -5,3.22 0,3.16 1.19,3.22 5,3.22 h 10 z"
       sodipodi:nodetypes="ccsssc"
       stroke-miterlimit="4" />
    <path
       id="path5185"
       style="fill:url(#linearGradient5219);fill-rule:evenodd;stroke:url(#linearGradient5219);stroke-width:0.09999997;stroke-linecap:butt;stroke-linejoin:miter;stroke-miterlimit:4;stroke-dasharray:none"
       d="m 472.36206,600.28283 0,-6.44 h -10 c -3.74,0 -5,0.0656 -5,3.22 0,3.16 1.19,3.22 5,3.22 h 10 z"
       sodipodi:nodetypes="ccsssc"
       stroke-miterlimit="4" />
    <path
       id="path5183"
       style="fill:url(#linearGradient5215);fill-rule:evenodd;stroke:url(#linearGradient5215);stroke-width:0.09999997;stroke-linecap:butt;stroke-linejoin:miter;stroke-miterlimit:4;stroke-dasharray:none"
       d="m 472.36206,613.28283 0,-6.44 h -10 c -3.74,0 -5,0.0656 -5,3.22 0,3.16 1.19,3.22 5,3.22 h 10 z"
       sodipodi:nodetypes="ccsssc"
       stroke-miterlimit="4" />
    <path
       id="path5181"
       style="fill:url(#linearGradient5211);fill-rule:evenodd;stroke:url(#linearGradient5211);stroke-width:0.09999997;stroke-linecap:butt;stroke-linejoin:miter;stroke-miterlimit:4;stroke-dasharray:none"
       d="m 472.36206,626.28283 0,-6.44 h -10 c -3.74,0 -5,0.0656 -5,3.22 0,3.16 1.19,3.22 5,3.22 h 10 z"
       sodipodi:nodetypes="ccsssc"
       stroke-miterlimit="4" />
    <path
       id="path5179"
       style="fill:url(#linearGradient5207);fill-rule:evenodd;stroke:url(#linearGradient5207);stroke-width:0.09999997;stroke-linecap:butt;stroke-linejoin:miter;stroke-miterlimit:4;stroke-dasharray:none"
       d="m 472.36206,639.28283 0,-6.44 h -10 c -3.74,0 -5,0.0656 -5,3.22 0,3.16 1.19,3.22 5,3.22 h 10 z"
       sodipodi:nodetypes="ccsssc"
       stroke-miterlimit="4" />
    <path
       id="path5177"
       style="fill:url(#linearGradient5203);fill-rule:evenodd;stroke:url(#linearGradient5203);stroke-width:0.09999997;stroke-linecap:butt;stroke-linejoin:miter;stroke-miterlimit:4;stroke-dasharray:none"
       d="m 472.36206,652.28283 0,-6.44 h -10 c -3.74,0 -5,0.0656 -5,3.22 0,3.16 1.19,3.22 5,3.22 h 10 z"
       sodipodi:nodetypes="ccsssc"
       stroke-miterlimit="4" />
    <rect
       id="rect2451"
       style="fill:#00007f;fill-rule:evenodd;stroke:#00007f;stroke-width:17.80715561;stroke-linecap:round;stroke-linejoin:round;stroke-miterlimit:4;stroke-dasharray:none;stroke-dashoffset:0"
       height="154.19284"
       width="154.19284"
       stroke-miterlimit="4"
       y="500.2489"
       x="477.20316" />
    <path
       id="path4788"
       sodipodi:rx="18.106426"
       sodipodi:ry="18.106426"
       style="stroke-dasharray:none;"
       sodipodi:type="arc"
       d="m 116.7992,-19.126507 c 0,9.9999033 -8.10653,18.1064264 -18.106428,18.1064264 -9.999903,0 -18.106426,-8.1065231 -18.106426,-18.1064264 0,-9.999903 8.106523,-18.106426 18.106426,-18.106426 9.999898,0 18.106428,8.106523 18.106428,18.106426 z"
       stroke-linejoin="round"
       stroke-linecap="round"
       transform="matrix(0.2668429,0,0,0.2668429,598.91761,511.49558)"
       stroke="#FFF"
       stroke-dashoffset="0"
       sodipodi:cy="-19.126507"
       sodipodi:cx="98.692772"
       stroke-miterlimit="4"
       stroke-width="20"
       fill="#FFF" />
    <path
       id="path4790"
       sodipodi:rx="18.106426"
       sodipodi:ry="18.106426"
       style="stroke-dasharray:none;"
       sodipodi:type="arc"
       d="m 116.7992,-19.126507 c 0,9.9999033 -8.10653,18.1064264 -18.106428,18.1064264 -9.999903,0 -18.106426,-8.1065231 -18.106426,-18.1064264 0,-9.999903 8.106523,-18.106426 18.106426,-18.106426 9.999898,0 18.106428,8.106523 18.106428,18.106426 z"
       stroke-linejoin="round"
       stroke-linecap="round"
       transform="matrix(0.53368578,0,0,0.53368578,607.62863,481.55287)"
       stroke="#00007f"
       stroke-dashoffset="0"
       sodipodi:cy="-19.126507"
       sodipodi:cx="98.692772"
       stroke-miterlimit="4"
       stroke-width="20"
       fill="#00007f" />
    <path
       id="path4887"
       style="fill:none;stroke:#7f7f7f;stroke-width:3.21337008;stroke-linecap:round;stroke-linejoin:miter;stroke-miterlimit:4;stroke-dasharray:9.64010984, 9.64010984;stroke-dashoffset:0"
       d="m 636.46118,464.95202 -164.62341,0 c -29.53243,0 -29.93153,30.14457 -29.93153,30.14457 l 0,164.69713 c 0,29.54566 25.24226,29.94493 25.24226,29.94493 l 169.612,0 c 30.53016,0 29.93152,-31.64182 29.93152,-31.64182 l 0,-162.70079"
       sodipodi:nodetypes="cscscscc"
       stroke-miterlimit="4" />
    <text
       id="text2966"
       style="font-size:64px;font-style:normal;font-variant:normal;font-weight:normal;font-stretch:normal;text-align:start;line-height:100%;writing-mode:lr-tb;text-anchor:start;fill:#ffffff;font-family:Helvetica"
       line-height="100%"
       font-weight="normal"
       xml:space="preserve"
       font-size="64px"
       font-style="normal"
       font-stretch="normal"
       font-variant="normal"
       y="595.53284"
       x="481.58081"
       sodipodi:linespacing="100%"><tspan
   id="tspan2968"
   sodipodi:role="line"
   font-weight="normal"
   font-style="normal"
   font-stretch="normal"
   font-variant="normal"
   y="595.53284"
   x="481.58081"
   style="font-style:normal;font-variant:normal;font-weight:normal;font-stretch:normal;font-family:Helvetica">eLua</tspan> </text>
  </g>
</svg>
