<?xml version="1.0" encoding="UTF-8" standalone="no"?>
<svg id="svg5414" xmlns:inkscape="http://www.inkscape.org/namespaces/inkscape" xmlns:rdf="http://www.w3.org/1999/02/22-rdf-syntax-ns#" xmlns="http://www.w3.org/2000/svg" sodipodi:docname="eLuaLogo.svg" xmlns:sodipodi="http://sodipodi.sourceforge.net/DTD/sodipodi-0.dtd" viewBox="0 0 245 245" sodipodi:version="0.32" version="1.0" inkscape:output_extension="org.inkscape.output.svg.inkscape" xmlns:cc="http://creativecommons.org/ns#" xmlns:xlink="http://www.w3.org/1999/xlink" inkscape:version="0.47pre1 r21720" xmlns:dc="http://purl.org/dc/elements/1.1/">
<defs id="defs5416">
<linearGradient id="linearGradient4949" y2="-29.3" xlink:href="#linearGradient4941" gradientUnits="userSpaceOnUse" x2="-28.4" gradientTransform="matrix(0,-1,1,0,511.47206,451.17283)" y1="-29.3" x1="-43.6" inkscape:collect="always"/>
<linearGradient id="linearGradient4971" y2="-29.3" xlink:href="#linearGradient4941" gradientUnits="userSpaceOnUse" x2="-28.4" gradientTransform="matrix(0,-1,1,0,524.47206,451.17283)" y1="-29.3" x1="-43.6" inkscape:collect="always"/>
<linearGradient id="linearGradient4977" y2="-29.3" xlink:href="#linearGradient4941" gradientUnits="userSpaceOnUse" x2="-28.4" gradientTransform="matrix(0,-1,1,0,537.47206,451.17283)" y1="-29.3" x1="-43.6" inkscape:collect="always"/>
<linearGradient id="linearGradient4987" y2="-29.3" xlink:href="#linearGradient4941" gradientUnits="userSpaceOnUse" x2="-28.4" gradientTransform="matrix(0,-1,1,0,550.47206,451.17283)" y1="-29.3" x1="-43.6" inkscape:collect="always"/>
<linearGradient id="linearGradient4991" y2="-29.3" xlink:href="#linearGradient4941" gradientUnits="userSpaceOnUse" x2="-28.4" gradientTransform="matrix(0,-1,1,0,563.47206,451.17283)" y1="-29.3" x1="-43.6" inkscape:collect="always"/>
<linearGradient id="linearGradient4995" y2="-29.3" xlink:href="#linearGradient4941" gradientUnits="userSpaceOnUse" x2="-28.4" gradientTransform="matrix(0,-1,1,0,576.47206,451.17283)" y1="-29.3" x1="-43.6" inkscape:collect="always"/>
<linearGradient id="linearGradient5011" y2="-29.3" xlink:href="#linearGradient4941" gradientUnits="userSpaceOnUse" x2="-28.4" gradientTransform="matrix(0,-1,1,0,589.53242,451.17283)" y1="-29.3" x1="-43.6" inkscape:collect="always"/>
<linearGradient id="linearGradient5015" y2="-29.3" xlink:href="#linearGradient4941" gradientUnits="userSpaceOnUse" x2="-28.4" gradientTransform="matrix(0,-1,1,0,602.53242,451.17283)" y1="-29.3" x1="-43.6" inkscape:collect="always"/>
<linearGradient id="linearGradient5019" y2="-29.3" xlink:href="#linearGradient4941" gradientUnits="userSpaceOnUse" x2="-28.4" gradientTransform="matrix(0,-1,1,0,615.53242,451.17283)" y1="-29.3" x1="-43.6" inkscape:collect="always"/>
<linearGradient id="linearGradient5023" y2="-29.3" xlink:href="#linearGradient4941" gradientUnits="userSpaceOnUse" x2="-28.4" gradientTransform="matrix(0,-1,1,0,628.53242,451.17283)" y1="-29.3" x1="-43.6" inkscape:collect="always"/>
<linearGradient id="linearGradient5027" y2="-29.3" xlink:href="#linearGradient4941" gradientUnits="userSpaceOnUse" x2="-28.4" gradientTransform="matrix(0,-1,1,0,641.53242,451.17283)" y1="-29.3" x1="-43.6" inkscape:collect="always"/>
<linearGradient id="linearGradient5031" y2="-29.3" xlink:href="#linearGradient4941" gradientUnits="userSpaceOnUse" x2="-28.4" gradientTransform="matrix(0,-1,1,0,654.53242,451.17283)" y1="-29.3" x1="-43.6" inkscape:collect="always"/>
<linearGradient id="linearGradient5059" y2="-29.3" xlink:href="#linearGradient4941" gradientUnits="userSpaceOnUse" x2="-28.4" gradientTransform="matrix(0,1,-1,0,595.97374,703.17283)" y1="-29.3" x1="-43.6" inkscape:collect="always"/>
<linearGradient id="linearGradient5063" y2="-29.3" xlink:href="#linearGradient4941" gradientUnits="userSpaceOnUse" x2="-28.4" gradientTransform="matrix(0,1,-1,0,582.97374,703.17283)" y1="-29.3" x1="-43.6" inkscape:collect="always"/>
<linearGradient id="linearGradient5067" y2="-29.3" xlink:href="#linearGradient4941" gradientUnits="userSpaceOnUse" x2="-28.4" gradientTransform="matrix(0,1,-1,0,569.97374,703.17283)" y1="-29.3" x1="-43.6" inkscape:collect="always"/>
<linearGradient id="linearGradient5071" y2="-29.3" xlink:href="#linearGradient4941" gradientUnits="userSpaceOnUse" x2="-28.4" gradientTransform="matrix(0,1,-1,0,556.97374,703.17283)" y1="-29.3" x1="-43.6" inkscape:collect="always"/>
<linearGradient id="linearGradient5075" y2="-29.3" xlink:href="#linearGradient4941" gradientUnits="userSpaceOnUse" x2="-28.4" gradientTransform="matrix(0,1,-1,0,543.97374,703.17283)" y1="-29.3" x1="-43.6" inkscape:collect="always"/>
<linearGradient id="linearGradient5079" y2="-29.3" xlink:href="#linearGradient4941" gradientUnits="userSpaceOnUse" x2="-28.4" gradientTransform="matrix(0,1,-1,0,530.97374,703.17283)" y1="-29.3" x1="-43.6" inkscape:collect="always"/>
<linearGradient id="linearGradient5083" y2="-29.3" xlink:href="#linearGradient4941" gradientUnits="userSpaceOnUse" x2="-28.4" gradientTransform="matrix(0,1,-1,0,517.91338,703.17283)" y1="-29.3" x1="-43.6" inkscape:collect="always"/>
<linearGradient id="linearGradient5087" y2="-29.3" xlink:href="#linearGradient4941" gradientUnits="userSpaceOnUse" x2="-28.4" gradientTransform="matrix(0,1,-1,0,504.91338,703.17283)" y1="-29.3" x1="-43.6" inkscape:collect="always"/>
<linearGradient id="linearGradient5091" y2="-29.3" xlink:href="#linearGradient4941" gradientUnits="userSpaceOnUse" x2="-28.4" gradientTransform="matrix(0,1,-1,0,491.91338,703.17283)" y1="-29.3" x1="-43.6" inkscape:collect="always"/>
<linearGradient id="linearGradient5095" y2="-29.3" xlink:href="#linearGradient4941" gradientUnits="userSpaceOnUse" x2="-28.4" gradientTransform="matrix(0,1,-1,0,478.91338,703.17283)" y1="-29.3" x1="-43.6" inkscape:collect="always"/>
<linearGradient id="linearGradient5099" y2="-29.3" xlink:href="#linearGradient4941" gradientUnits="userSpaceOnUse" x2="-28.4" gradientTransform="matrix(0,1,-1,0,465.91338,703.17283)" y1="-29.3" x1="-43.6" inkscape:collect="always"/>
<linearGradient id="linearGradient5103" y2="-29.3" xlink:href="#linearGradient4941" gradientUnits="userSpaceOnUse" x2="-28.4" gradientTransform="matrix(0,1,-1,0,452.91338,703.17283)" y1="-29.3" x1="-43.6" inkscape:collect="always"/>
<linearGradient id="linearGradient5131" y2="-29.3" xlink:href="#linearGradient4941" gradientUnits="userSpaceOnUse" x2="-28.4" gradientTransform="translate(680.47206,535.67115)" y1="-29.3" x1="-43.6" inkscape:collect="always"/>
<linearGradient id="linearGradient5135" y2="-29.3" xlink:href="#linearGradient4941" gradientUnits="userSpaceOnUse" x2="-28.4" gradientTransform="translate(680.47206,548.67115)" y1="-29.3" x1="-43.6" inkscape:collect="always"/>
<linearGradient id="linearGradient5139" y2="-29.3" xlink:href="#linearGradient4941" gradientUnits="userSpaceOnUse" x2="-28.4" gradientTransform="translate(680.47206,561.67115)" y1="-29.3" x1="-43.6" inkscape:collect="always"/>
<linearGradient id="linearGradient5143" y2="-29.3" xlink:href="#linearGradient4941" gradientUnits="userSpaceOnUse" x2="-28.4" gradientTransform="translate(680.47206,574.67115)" y1="-29.3" x1="-43.6" inkscape:collect="always"/>
<linearGradient id="linearGradient5147" y2="-29.3" xlink:href="#linearGradient4941" gradientUnits="userSpaceOnUse" x2="-28.4" gradientTransform="translate(680.47206,587.67115)" y1="-29.3" x1="-43.6" inkscape:collect="always"/>
<linearGradient id="linearGradient5151" y2="-29.3" xlink:href="#linearGradient4941" gradientUnits="userSpaceOnUse" x2="-28.4" gradientTransform="translate(680.47206,600.67115)" y1="-29.3" x1="-43.6" inkscape:collect="always"/>
<linearGradient id="linearGradient5155" y2="-29.3" xlink:href="#linearGradient4941" gradientUnits="userSpaceOnUse" x2="-28.4" gradientTransform="translate(680.47206,613.73151)" y1="-29.3" x1="-43.6" inkscape:collect="always"/>
<linearGradient id="linearGradient5159" y2="-29.3" xlink:href="#linearGradient4941" gradientUnits="userSpaceOnUse" x2="-28.4" gradientTransform="translate(680.47206,626.73151)" y1="-29.3" x1="-43.6" inkscape:collect="always"/>
<linearGradient id="linearGradient5163" y2="-29.3" xlink:href="#linearGradient4941" gradientUnits="userSpaceOnUse" x2="-28.4" gradientTransform="translate(680.47206,639.73151)" y1="-29.3" x1="-43.6" inkscape:collect="always"/>
<linearGradient id="linearGradient5167" y2="-29.3" xlink:href="#linearGradient4941" gradientUnits="userSpaceOnUse" x2="-28.4" gradientTransform="translate(680.47206,652.73151)" y1="-29.3" x1="-43.6" inkscape:collect="always"/>
<linearGradient id="linearGradient5171" y2="-29.3" xlink:href="#linearGradient4941" gradientUnits="userSpaceOnUse" x2="-28.4" gradientTransform="translate(680.47206,665.73151)" y1="-29.3" x1="-43.6" inkscape:collect="always"/>
<linearGradient id="linearGradient5175" y2="-29.3" xlink:href="#linearGradient4941" gradientUnits="userSpaceOnUse" x2="-28.4" gradientTransform="translate(680.47206,678.73151)" y1="-29.3" x1="-43.6" inkscape:collect="always"/>
<linearGradient id="linearGradient5247" y2="-29.3" xlink:href="#linearGradient4941" gradientUnits="userSpaceOnUse" x2="-28.4" gradientTransform="matrix(-1,0,0,-1,428.47206,477.11247)" y1="-29.3" x1="-43.6" inkscape:collect="always"/>
<linearGradient id="linearGradient5243" y2="-29.3" xlink:href="#linearGradient4941" gradientUnits="userSpaceOnUse" x2="-28.4" gradientTransform="matrix(-1,0,0,-1,428.47206,490.11247)" y1="-29.3" x1="-43.6" inkscape:collect="always"/>
<linearGradient id="linearGradient5239" y2="-29.3" xlink:href="#linearGradient4941" gradientUnits="userSpaceOnUse" x2="-28.4" gradientTransform="matrix(-1,0,0,-1,428.47206,503.11247)" y1="-29.3" x1="-43.6" inkscape:collect="always"/>
<linearGradient id="linearGradient5235" y2="-29.3" xlink:href="#linearGradient4941" gradientUnits="userSpaceOnUse" x2="-28.4" gradientTransform="matrix(-1,0,0,-1,428.47206,516.11247)" y1="-29.3" x1="-43.6" inkscape:collect="always"/>
<linearGradient id="linearGradient5231" y2="-29.3" xlink:href="#linearGradient4941" gradientUnits="userSpaceOnUse" x2="-28.4" gradientTransform="matrix(-1,0,0,-1,428.47206,529.11247)" y1="-29.3" x1="-43.6" inkscape:collect="always"/>
<linearGradient id="linearGradient5227" y2="-29.3" xlink:href="#linearGradient4941" gradientUnits="userSpaceOnUse" x2="-28.4" gradientTransform="matrix(-1,0,0,-1,428.47206,542.11247)" y1="-29.3" x1="-43.6" inkscape:collect="always"/>
<linearGradient id="linearGradient5223" y2="-29.3" xlink:href="#linearGradient4941" gradientUnits="userSpaceOnUse" x2="-28.4" gradientTransform="matrix(-1,0,0,-1,428.47206,555.17283)" y1="-29.3" x1="-43.6" inkscape:collect="always"/>
<linearGradient id="linearGradient5219" y2="-29.3" xlink:href="#linearGradient4941" gradientUnits="userSpaceOnUse" x2="-28.4" gradientTransform="matrix(-1,0,0,-1,428.47206,568.17283)" y1="-29.3" x1="-43.6" inkscape:collect="always"/>
<linearGradient id="linearGradient5215" y2="-29.3" xlink:href="#linearGradient4941" gradientUnits="userSpaceOnUse" x2="-28.4" gradientTransform="matrix(-1,0,0,-1,428.47206,581.17283)" y1="-29.3" x1="-43.6" inkscape:collect="always"/>
<linearGradient id="linearGradient5211" y2="-29.3" xlink:href="#linearGradient4941" gradientUnits="userSpaceOnUse" x2="-28.4" gradientTransform="matrix(-1,0,0,-1,428.47206,594.17283)" y1="-29.3" x1="-43.6" inkscape:collect="always"/>
<linearGradient id="linearGradient5207" y2="-29.3" xlink:href="#linearGradient4941" gradientUnits="userSpaceOnUse" x2="-28.4" gradientTransform="matrix(-1,0,0,-1,428.47206,607.17283)" y1="-29.3" x1="-43.6" inkscape:collect="always"/>
<linearGradient id="linearGradient5203" y2="-29.3" xlink:href="#linearGradient4941" gradientUnits="userSpaceOnUse" x2="-28.4" gradientTransform="matrix(-1,0,0,-1,428.47206,620.17283)" y1="-29.3" x1="-43.6" inkscape:collect="always"/>
<linearGradient id="linearGradient4941">
<stop id="stop4943" stop-color="#7f7f7f" offset="0"/>
<stop id="stop4951" stop-color="#7f7f7f" offset="0.771"/>
<stop id="stop4945" stop-color="#7f7f7f" stop-opacity="0" offset="1"/>
</linearGradient>
</defs>
<sodipodi:namedview id="base" inkscape:zoom="2.8284271" borderopacity="1.0" inkscape:current-layer="layer1" inkscape:cx="91.620417" inkscape:cy="163.52029" inkscape:window-maximized="0" showgrid="false" inkscape:guide-bbox="true" showguides="true" bordercolor="#666666" inkscape:window-x="0" guidetolerance="10" objecttolerance="10" inkscape:window-y="0" inkscape:window-width="1280" inkscape:pageopacity="0.0" inkscape:pageshadow="2" pagecolor="#ffffff" gridtolerance="10000" inkscape:document-units="px" inkscape:window-height="752"/>
<metadata id="metadata5419">
<rdf:RDF>
<cc:Work rdf:about="">
<dc:format>image/svg+xml</dc:format>
<dc:type rdf:resource="http://purl.org/dc/dcmitype/StillImage"/>
</cc:Work>
</rdf:RDF>
</metadata>
<g id="layer1" inkscape:label="Layer 1" inkscape:groupmode="layer" transform="translate(-431.29956,-455.34533)">
<path id="path4931" stroke-linejoin="miter" style="stroke-dasharray:none;" d="m479,495,6.44,0v-10c0-3.74-0.0656-5-3.22-5-3.16,0-3.22,1.19-3.22,5v10z" fill-rule="evenodd" sodipodi:nodetypes="ccsssc" stroke="url(#linearGradient4949)" stroke-linecap="butt" stroke-miterlimit="4" stroke-width="0.09999997" fill="url(#linearGradient4949)"/>
<path id="path4957" stroke-linejoin="miter" style="stroke-dasharray:none;" d="m492,495,6.44,0v-10c0-3.74-0.0656-5-3.22-5-3.16,0-3.22,1.19-3.22,5v10z" fill-rule="evenodd" sodipodi:nodetypes="ccsssc" stroke="url(#linearGradient4971)" stroke-linecap="butt" stroke-miterlimit="4" stroke-width="0.09999997" fill="url(#linearGradient4971)"/>
<path id="path4973" stroke-linejoin="miter" style="stroke-dasharray:none;" d="m505,495,6.44,0v-10c0-3.74-0.0656-5-3.22-5-3.16,0-3.22,1.19-3.22,5v10z" fill-rule="evenodd" sodipodi:nodetypes="ccsssc" stroke="url(#linearGradient4977)" stroke-linecap="butt" stroke-miterlimit="4" stroke-width="0.09999997" fill="url(#linearGradient4977)"/>
<path id="path4979" stroke-linejoin="miter" style="stroke-dasharray:none;" d="m518,495,6.44,0v-10c0-3.74-0.0656-5-3.22-5-3.16,0-3.22,1.19-3.22,5v10z" fill-rule="evenodd" sodipodi:nodetypes="ccsssc" stroke="url(#linearGradient4987)" stroke-linecap="butt" stroke-miterlimit="4" stroke-width="0.09999997" fill="url(#linearGradient4987)"/>
<path id="path4981" stroke-linejoin="miter" style="stroke-dasharray:none;" d="m531,495,6.44,0v-10c0-3.74-0.0656-5-3.22-5-3.16,0-3.22,1.19-3.22,5v10z" fill-rule="evenodd" sodipodi:nodetypes="ccsssc" stroke="url(#linearGradient4991)" stroke-linecap="butt" stroke-miterlimit="4" stroke-width="0.09999997" fill="url(#linearGradient4991)"/>
<path id="path4983" stroke-linejoin="miter" style="stroke-dasharray:none;" d="m544,495,6.44,0v-10c0-3.74-0.0656-5-3.22-5-3.16,0-3.22,1.19-3.22,5v10z" fill-rule="evenodd" sodipodi:nodetypes="ccsssc" stroke="url(#linearGradient4995)" stroke-linecap="butt" stroke-miterlimit="4" stroke-width="0.09999997" fill="url(#linearGradient4995)"/>
<path id="path4997" stroke-linejoin="miter" style="stroke-dasharray:none;" d="m557,495,6.44,0v-10c0-3.74-0.0656-5-3.22-5-3.16,0-3.22,1.19-3.22,5v10z" fill-rule="evenodd" sodipodi:nodetypes="ccsssc" stroke="url(#linearGradient5011)" stroke-linecap="butt" stroke-miterlimit="4" stroke-width="0.09999997" fill="url(#linearGradient5011)"/>
<path id="path4999" stroke-linejoin="miter" style="stroke-dasharray:none;" d="m570,495,6.44,0v-10c0-3.74-0.0656-5-3.22-5-3.16,0-3.22,1.19-3.22,5v10z" fill-rule="evenodd" sodipodi:nodetypes="ccsssc" stroke="url(#linearGradient5015)" stroke-linecap="butt" stroke-miterlimit="4" stroke-width="0.09999997" fill="url(#linearGradient5015)"/>
<path id="path5001" stroke-linejoin="miter" style="stroke-dasharray:none;" d="m583,495,6.44,0v-10c0-3.74-0.0656-5-3.22-5-3.16,0-3.22,1.19-3.22,5v10z" fill-rule="evenodd" sodipodi:nodetypes="ccsssc" stroke="url(#linearGradient5019)" stroke-linecap="butt" stroke-miterlimit="4" stroke-width="0.09999997" fill="url(#linearGradient5019)"/>
<path id="path5003" stroke-linejoin="miter" style="stroke-dasharray:none;" d="m596,495,6.44,0v-10c0-3.74-0.0656-5-3.22-5-3.16,0-3.22,1.19-3.22,5v10z" fill-rule="evenodd" sodipodi:nodetypes="ccsssc" stroke="url(#linearGradient5023)" stroke-linecap="butt" stroke-miterlimit="4" stroke-width="0.09999997" fill="url(#linearGradient5023)"/>
<path id="path5005" stroke-linejoin="miter" style="stroke-dasharray:none;" d="m609,495,6.44,0v-10c0-3.74-0.0656-5-3.22-5-3.16,0-3.22,1.19-3.22,5v10z" fill-rule="evenodd" sodipodi:nodetypes="ccsssc" stroke="url(#linearGradient5027)" stroke-linecap="butt" stroke-miterlimit="4" stroke-width="0.09999997" fill="url(#linearGradient5027)"/>
<path id="path5007" stroke-linejoin="miter" style="stroke-dasharray:none;" d="m622,495,6.44,0v-10c0-3.74-0.0656-5-3.22-5-3.16,0-3.22,1.19-3.22,5v10z" fill-rule="evenodd" sodipodi:nodetypes="ccsssc" stroke="url(#linearGradient5031)" stroke-linecap="butt" stroke-miterlimit="4" stroke-width="0.09999997" fill="url(#linearGradient5031)"/>
<path id="path5033" stroke-linejoin="miter" style="stroke-dasharray:none;" d="m628,660-6.44,0v10c0,3.74,0.0656,5,3.22,5,3.16,0,3.22-1.19,3.22-5v-10z" fill-rule="evenodd" sodipodi:nodetypes="ccsssc" stroke="url(#linearGradient5059)" stroke-linecap="butt" stroke-miterlimit="4" stroke-width="0.09999997" fill="url(#linearGradient5059)"/>
<path id="path5035" stroke-linejoin="miter" style="stroke-dasharray:none;" d="m615,660-6.44,0v10c0,3.74,0.0656,5,3.22,5,3.16,0,3.22-1.19,3.22-5v-10z" fill-rule="evenodd" sodipodi:nodetypes="ccsssc" stroke="url(#linearGradient5063)" stroke-linecap="butt" stroke-miterlimit="4" stroke-width="0.09999997" fill="url(#linearGradient5063)"/>
<path id="path5037" stroke-linejoin="miter" style="stroke-dasharray:none;" d="m602,660-6.44,0v10c0,3.74,0.0656,5,3.22,5,3.16,0,3.22-1.19,3.22-5v-10z" fill-rule="evenodd" sodipodi:nodetypes="ccsssc" stroke="url(#linearGradient5067)" stroke-linecap="butt" stroke-miterlimit="4" stroke-width="0.09999997" fill="url(#linearGradient5067)"/>
<path id="path5039" stroke-linejoin="miter" style="stroke-dasharray:none;" d="m589,660-6.44,0v10c0,3.74,0.0656,5,3.22,5,3.16,0,3.22-1.19,3.22-5v-10z" fill-rule="evenodd" sodipodi:nodetypes="ccsssc" stroke="url(#linearGradient5071)" stroke-linecap="butt" stroke-miterlimit="4" stroke-width="0.09999997" fill="url(#linearGradient5071)"/>
<path id="path5041" stroke-linejoin="miter" style="stroke-dasharray:none;" d="m576,660-6.44,0v10c0,3.74,0.0656,5,3.22,5,3.16,0,3.22-1.19,3.22-5v-10z" fill-rule="evenodd" sodipodi:nodetypes="ccsssc" stroke="url(#linearGradient5075)" stroke-linecap="butt" stroke-miterlimit="4" stroke-width="0.09999997" fill="url(#linearGradient5075)"/>
<path id="path5043" stroke-linejoin="miter" style="stroke-dasharray:none;" d="m563,660-6.44,0v10c0,3.74,0.0656,5,3.22,5,3.16,0,3.22-1.19,3.22-5v-10z" fill-rule="evenodd" sodipodi:nodetypes="ccsssc" stroke="url(#linearGradient5079)" stroke-linecap="butt" stroke-miterlimit="4" stroke-width="0.09999997" fill="url(#linearGradient5079)"/>
<path id="path5045" stroke-linejoin="miter" style="stroke-dasharray:none;" d="m550,660-6.44,0v10c0,3.74,0.0656,5,3.22,5,3.16,0,3.22-1.19,3.22-5v-10z" fill-rule="evenodd" sodipodi:nodetypes="ccsssc" stroke="url(#linearGradient5083)" stroke-linecap="butt" stroke-miterlimit="4" stroke-width="0.09999997" fill="url(#linearGradient5083)"/>
<path id="path5047" stroke-linejoin="miter" style="stroke-dasharray:none;" d="m537,660-6.44,0v10c0,3.74,0.0656,5,3.22,5,3.16,0,3.22-1.19,3.22-5v-10z" fill-rule="evenodd" sodipodi:nodetypes="ccsssc" stroke="url(#linearGradient5087)" stroke-linecap="butt" stroke-miterlimit="4" stroke-width="0.09999997" fill="url(#linearGradient5087)"/>
<path id="path5049" stroke-linejoin="miter" style="stroke-dasharray:none;" d="m524,660-6.44,0v10c0,3.74,0.0656,5,3.22,5,3.16,0,3.22-1.19,3.22-5v-10z" fill-rule="evenodd" sodipodi:nodetypes="ccsssc" stroke="url(#linearGradient5091)" stroke-linecap="butt" stroke-miterlimit="4" stroke-width="0.09999997" fill="url(#linearGradient5091)"/>
<path id="path5051" stroke-linejoin="miter" style="stroke-dasharray:none;" d="m511,660-6.44,0v10c0,3.74,0.0656,5,3.22,5,3.16,0,3.22-1.19,3.22-5v-10z" fill-rule="evenodd" sodipodi:nodetypes="ccsssc" stroke="url(#linearGradient5095)" stroke-linecap="butt" stroke-miterlimit="4" stroke-width="0.09999997" fill="url(#linearGradient5095)"/>
<path id="path5053" stroke-linejoin="miter" style="stroke-dasharray:none;" d="m498,660-6.44,0v10c0,3.74,0.0656,5,3.22,5,3.16,0,3.22-1.19,3.22-5v-10z" fill-rule="evenodd" sodipodi:nodetypes="ccsssc" stroke="url(#linearGradient5099)" stroke-linecap="butt" stroke-miterlimit="4" stroke-width="0.09999997" fill="url(#linearGradient5099)"/>
<path id="path5055" stroke-linejoin="miter" style="stroke-dasharray:none;" d="m485,660-6.44,0v10c0,3.74,0.0656,5,3.22,5,3.16,0,3.22-1.19,3.22-5v-10z" fill-rule="evenodd" sodipodi:nodetypes="ccsssc" stroke="url(#linearGradient5103)" stroke-linecap="butt" stroke-miterlimit="4" stroke-width="0.09999997" fill="url(#linearGradient5103)"/>
<path id="path5105" stroke-linejoin="miter" style="stroke-dasharray:none;" d="m637,503,0,6.44h10c3.74,0,5-0.0656,5-3.22,0-3.16-1.19-3.22-5-3.22h-10z" fill-rule="evenodd" sodipodi:nodetypes="ccsssc" stroke="url(#linearGradient5131)" stroke-linecap="butt" stroke-miterlimit="4" stroke-width="0.09999997" fill="url(#linearGradient5131)"/>
<path id="path5107" stroke-linejoin="miter" style="stroke-dasharray:none;" d="m637,516,0,6.44h10c3.74,0,5-0.0656,5-3.22,0-3.16-1.19-3.22-5-3.22h-10z" fill-rule="evenodd" sodipodi:nodetypes="ccsssc" stroke="url(#linearGradient5135)" stroke-linecap="butt" stroke-miterlimit="4" stroke-width="0.09999997" fill="url(#linearGradient5135)"/>
<path id="path5109" stroke-linejoin="miter" style="stroke-dasharray:none;" d="m637,529,0,6.44h10c3.74,0,5-0.0656,5-3.22,0-3.16-1.19-3.22-5-3.22h-10z" fill-rule="evenodd" sodipodi:nodetypes="ccsssc" stroke="url(#linearGradient5139)" stroke-linecap="butt" stroke-miterlimit="4" stroke-width="0.09999997" fill="url(#linearGradient5139)"/>
<path id="path5111" stroke-linejoin="miter" style="stroke-dasharray:none;" d="m637,542,0,6.44h10c3.74,0,5-0.0656,5-3.22,0-3.16-1.19-3.22-5-3.22h-10z" fill-rule="evenodd" sodipodi:nodetypes="ccsssc" stroke="url(#linearGradient5143)" stroke-linecap="butt" stroke-miterlimit="4" stroke-width="0.09999997" fill="url(#linearGradient5143)"/>
<path id="path5113" stroke-linejoin="miter" style="stroke-dasharray:none;" d="m637,555,0,6.44h10c3.74,0,5-0.0656,5-3.22,0-3.16-1.19-3.22-5-3.22h-10z" fill-rule="evenodd" sodipodi:nodetypes="ccsssc" stroke="url(#linearGradient5147)" stroke-linecap="butt" stroke-miterlimit="4" stroke-width="0.09999997" fill="url(#linearGradient5147)"/>
<path id="path5115" stroke-linejoin="miter" style="stroke-dasharray:none;" d="m637,568,0,6.44h10c3.74,0,5-0.0656,5-3.22,0-3.16-1.19-3.22-5-3.22h-10z" fill-rule="evenodd" sodipodi:nodetypes="ccsssc" stroke="url(#linearGradient5151)" stroke-linecap="butt" stroke-miterlimit="4" stroke-width="0.09999997" fill="url(#linearGradient5151)"/>
<path id="path5117" stroke-linejoin="miter" style="stroke-dasharray:none;" d="m637,581,0,6.44h10c3.74,0,5-0.0656,5-3.22,0-3.16-1.19-3.22-5-3.22h-10z" fill-rule="evenodd" sodipodi:nodetypes="ccsssc" stroke="url(#linearGradient5155)" stroke-linecap="butt" stroke-miterlimit="4" stroke-width="0.09999997" fill="url(#linearGradient5155)"/>
<path id="path5119" stroke-linejoin="miter" style="stroke-dasharray:none;" d="m637,594,0,6.44h10c3.74,0,5-0.0656,5-3.22,0-3.16-1.19-3.22-5-3.22h-10z" fill-rule="evenodd" sodipodi:nodetypes="ccsssc" stroke="url(#linearGradient5159)" stroke-linecap="butt" stroke-miterlimit="4" stroke-width="0.09999997" fill="url(#linearGradient5159)"/>
<path id="path5121" stroke-linejoin="miter" style="stroke-dasharray:none;" d="m637,607,0,6.44h10c3.74,0,5-0.0656,5-3.22,0-3.16-1.19-3.22-5-3.22h-10z" fill-rule="evenodd" sodipodi:nodetypes="ccsssc" stroke="url(#linearGradient5163)" stroke-linecap="butt" stroke-miterlimit="4" stroke-width="0.09999997" fill="url(#linearGradient5163)"/>
<path id="path5123" stroke-linejoin="miter" style="stroke-dasharray:none;" d="m637,620,0,6.44h10c3.74,0,5-0.0656,5-3.22,0-3.16-1.19-3.22-5-3.22h-10z" fill-rule="evenodd" sodipodi:nodetypes="ccsssc" stroke="url(#linearGradient5167)" stroke-linecap="butt" stroke-miterlimit="4" stroke-width="0.09999997" fill="url(#linearGradient5167)"/>
<path id="path5125" stroke-linejoin="miter" style="stroke-dasharray:none;" d="m637,633,0,6.44h10c3.74,0,5-0.0656,5-3.22,0-3.16-1.19-3.22-5-3.22h-10z" fill-rule="evenodd" sodipodi:nodetypes="ccsssc" stroke="url(#linearGradient5171)" stroke-linecap="butt" stroke-miterlimit="4" stroke-width="0.09999997" fill="url(#linearGradient5171)"/>
<path id="path5127" stroke-linejoin="miter" style="stroke-dasharray:none;" d="m637,646,0,6.44h10c3.74,0,5-0.0656,5-3.22,0-3.16-1.19-3.22-5-3.22h-10z" fill-rule="evenodd" sodipodi:nodetypes="ccsssc" stroke="url(#linearGradient5175)" stroke-linecap="butt" stroke-miterlimit="4" stroke-width="0.09999997" fill="url(#linearGradient5175)"/>
<path id="path5199" stroke-linejoin="miter" style="stroke-dasharray:none;" d="m472,510,0-6.44h-10c-3.74,0-5,0.0656-5,3.22,0,3.16,1.19,3.22,5,3.22h10z" fill-rule="evenodd" sodipodi:nodetypes="ccsssc" stroke="url(#linearGradient5247)" stroke-linecap="butt" stroke-miterlimit="4" stroke-width="0.09999997" fill="url(#linearGradient5247)"/>
<path id="path5197" stroke-linejoin="miter" style="stroke-dasharray:none;" d="m472,523,0-6.44h-10c-3.74,0-5,0.0656-5,3.22,0,3.16,1.19,3.22,5,3.22h10z" fill-rule="evenodd" sodipodi:nodetypes="ccsssc" stroke="url(#linearGradient5243)" stroke-linecap="butt" stroke-miterlimit="4" stroke-width="0.09999997" fill="url(#linearGradient5243)"/>
<path id="path5195" stroke-linejoin="miter" style="stroke-dasharray:none;" d="m472,536,0-6.44h-10c-3.74,0-5,0.0656-5,3.22,0,3.16,1.19,3.22,5,3.22h10z" fill-rule="evenodd" sodipodi:nodetypes="ccsssc" stroke="url(#linearGradient5239)" stroke-linecap="butt" stroke-miterlimit="4" stroke-width="0.09999997" fill="url(#linearGradient5239)"/>
<path id="path5193" stroke-linejoin="miter" style="stroke-dasharray:none;" d="m472,549,0-6.44h-10c-3.74,0-5,0.0656-5,3.22,0,3.16,1.19,3.22,5,3.22h10z" fill-rule="evenodd" sodipodi:nodetypes="ccsssc" stroke="url(#linearGradient5235)" stroke-linecap="butt" stroke-miterlimit="4" stroke-width="0.09999997" fill="url(#linearGradient5235)"/>
<path id="path5191" stroke-linejoin="miter" style="stroke-dasharray:none;" d="m472,562,0-6.44h-10c-3.74,0-5,0.0656-5,3.22,0,3.16,1.19,3.22,5,3.22h10z" fill-rule="evenodd" sodipodi:nodetypes="ccsssc" stroke="url(#linearGradient5231)" stroke-linecap="butt" stroke-miterlimit="4" stroke-width="0.09999997" fill="url(#linearGradient5231)"/>
<path id="path5189" stroke-linejoin="miter" style="stroke-dasharray:none;" d="m472,575,0-6.44h-10c-3.74,0-5,0.0656-5,3.22,0,3.16,1.19,3.22,5,3.22h10z" fill-rule="evenodd" sodipodi:nodetypes="ccsssc" stroke="url(#linearGradient5227)" stroke-linecap="butt" stroke-miterlimit="4" stroke-width="0.09999997" fill="url(#linearGradient5227)"/>
<path id="path5187" stroke-linejoin="miter" style="stroke-dasharray:none;" d="m472,588,0-6.44h-10c-3.74,0-5,0.0656-5,3.22,0,3.16,1.19,3.22,5,3.22h10z" fill-rule="evenodd" sodipodi:nodetypes="ccsssc" stroke="url(#linearGradient5223)" stroke-linecap="butt" stroke-miterlimit="4" stroke-width="0.09999997" fill="url(#linearGradient5223)"/>
<path id="path5185" stroke-linejoin="miter" style="stroke-dasharray:none;" d="m472,601,0-6.44h-10c-3.74,0-5,0.0656-5,3.22,0,3.16,1.19,3.22,5,3.22h10z" fill-rule="evenodd" sodipodi:nodetypes="ccsssc" stroke="url(#linearGradient5219)" stroke-linecap="butt" stroke-miterlimit="4" stroke-width="0.09999997" fill="url(#linearGradient5219)"/>
<path id="path5183" stroke-linejoin="miter" style="stroke-dasharray:none;" d="m472,614,0-6.44h-10c-3.74,0-5,0.0656-5,3.22,0,3.16,1.19,3.22,5,3.22h10z" fill-rule="evenodd" sodipodi:nodetypes="ccsssc" stroke="url(#linearGradient5215)" stroke-linecap="butt" stroke-miterlimit="4" stroke-width="0.09999997" fill="url(#linearGradient5215)"/>
<path id="path5181" stroke-linejoin="miter" style="stroke-dasharray:none;" d="m472,627,0-6.44h-10c-3.74,0-5,0.0656-5,3.22,0,3.16,1.19,3.22,5,3.22h10z" fill-rule="evenodd" sodipodi:nodetypes="ccsssc" stroke="url(#linearGradient5211)" stroke-linecap="butt" stroke-miterlimit="4" stroke-width="0.09999997" fill="url(#linearGradient5211)"/>
<path id="path5179" stroke-linejoin="miter" style="stroke-dasharray:none;" d="m472,640,0-6.44h-10c-3.74,0-5,0.0656-5,3.22,0,3.16,1.19,3.22,5,3.22h10z" fill-rule="evenodd" sodipodi:nodetypes="ccsssc" stroke="url(#linearGradient5207)" stroke-linecap="butt" stroke-miterlimit="4" stroke-width="0.09999997" fill="url(#linearGradient5207)"/>
<path id="path5177" stroke-linejoin="miter" style="stroke-dasharray:none;" d="m472,653,0-6.44h-10c-3.74,0-5,0.0656-5,3.22,0,3.16,1.19,3.22,5,3.22h10z" fill-rule="evenodd" sodipodi:nodetypes="ccsssc" stroke="url(#linearGradient5203)" stroke-linecap="butt" stroke-miterlimit="4" stroke-width="0.09999997" fill="url(#linearGradient5203)"/>
<rect id="rect2451" stroke-linejoin="round" style="stroke-dasharray:none;" fill-rule="evenodd" stroke-dashoffset="0" height="156" width="154" stroke="#00007f" stroke-linecap="round" stroke-miterlimit="4" y="499" x="477" stroke-width="17.9" fill="#00007f"/>
<path id="path4788" sodipodi:rx="18.106426" sodipodi:ry="18.106426" style="stroke-dasharray:none;" sodipodi:type="arc" d="m117-19.1c0,10-8.11,18.1-18.1,18.1-10,0-18.1-8.11-18.1-18.1,0-10,8.11-18.1,18.1-18.1,10,0,18.1,8.11,18.1,18.1z" stroke-linejoin="round" stroke-linecap="round" transform="matrix(0.2668429,0,0,0.2668429,598.91761,511.49558)" stroke="#FFF" stroke-dashoffset="0" sodipodi:cy="-19.126507" sodipodi:cx="98.692772" stroke-miterlimit="4" stroke-width="20" fill="#FFF"/>
<path id="path4790" sodipodi:rx="18.106426" sodipodi:ry="18.106426" style="stroke-dasharray:none;" sodipodi:type="arc" d="m117-19.1c0,10-8.11,18.1-18.1,18.1-10,0-18.1-8.11-18.1-18.1,0-10,8.11-18.1,18.1-18.1,10,0,18.1,8.11,18.1,18.1z" stroke-linejoin="round" stroke-linecap="round" transform="matrix(0.53368578,0,0,0.53368578,607.62863,481.55287)" stroke="#00007f" stroke-dashoffset="0" sodipodi:cy="-19.126507" sodipodi:cx="98.692772" stroke-miterlimit="4" stroke-width="20" fill="#00007f"/>
<path id="path4887" stroke-linejoin="miter" style="stroke-dasharray:9.66, 9.66;" d="m637,465h-165c-29.6,0-30,30.2-30,30.2v165c0,29.6,25.3,30,25.3,30h170c30.6,0,30-31.7,30-31.7v-163" sodipodi:nodetypes="cscscscc" stroke-dashoffset="0" stroke="#7f7f7f" stroke-linecap="round" stroke-miterlimit="4" stroke-width="3.22000003" fill="none"/>
<text id="text2966" style="writing-mode:lr-tb;text-anchor:start;text-align:start;" line-height="100%" font-weight="normal" xml:space="preserve" font-size="64px" font-style="normal" font-stretch="normal" font-variant="normal" y="595.53284" x="483.58081" font-family="Helvetica" sodipodi:linespacing="100%" fill="#ffffff"><tspan id="tspan2968" sodipodi:role="line" font-weight="normal" font-style="normal" font-stretch="normal" font-variant="normal" y="595.53284" x="483.58081" font-family="Helvetica">eLua</tspan>
</text>
</g>
</svg>